<svg xmlns="http://www.w3.org/2000/svg" xmlns:xlink="http://www.w3.org/1999/xlink" version="1.1" width="48" height="48" xml:space="preserve" style=""><rect id="backgroundrect" width="100%" height="100%" x="0" y="0" fill="none" stroke="none" class="" style=""/>
<desc>Created with Fabric.js 1.7.22</desc>
<defs>
</defs>

<g class="currentLayer" style=""><title>Layer 1</title><g transform="translate(128,128) scale(0.7200000286102295) " style="" id="svg_1" class="">
	<g style="stroke: none; stroke-width: 0; stroke-dasharray: none; stroke-linecap: butt; stroke-linejoin: miter; stroke-miterlimit: 10; fill: none; fill-rule: nonzero; opacity: 1;" transform="translate(-175.0500030517578,-175.0500030517578) scale(3.890000104904175) " id="svg_2">
	<path d="M2.2403634568064312,6.098088476080555 c-0.045715606956208917,0 -0.09237186426131117,-0.008129630846466836 -0.1373349509384053,-0.02568224290133841 c-0.19339771173243953,-0.07464479231755919 -0.2885915270404295,-0.28915618806183135 -0.2127751089196387,-0.4790939269292838 c0.7004082497858665,-1.7513811544013422 2.1437421451275713,-3.0964655308167615 3.959949838770535,-3.690482875621099 c0.19678405298845486,-0.06485228243431505 0.41012355211742946,0.04027862555749477 0.47578094647017377,0.23391165117334123 c0.06565739435274438,0.19363302561584636 -0.04101235521174309,0.40297101991236756 -0.2381726683397546,0.4672690093344229 c-1.6039969749326608,0.5245459539345306 -2.8787663277527065,1.7125806435432045 -3.497149867115087,3.259427676420938 C2.5325294551726603,6.009032065444261 2.3906793825595662,6.098088476080555 2.2403634568064312,6.098088476080555 z" style="stroke: none; stroke-width: 1; stroke-dasharray: none; stroke-linecap: butt; stroke-linejoin: miter; stroke-miterlimit: 10; fill: rgb(254,206,70); fill-rule: nonzero; opacity: 1;" stroke-linecap="round" id="svg_3"/>
	<path d="M7.885958720793557,14.228458379897056 c-0.20769559703561566,0 -0.376260139557275,-0.1655488463280519 -0.376260139557275,-0.36952867483940244 s0.16856454252165942,-0.36952867483940244 0.376260139557275,-0.36952867483940244 c3.135563873000547,0 5.686795749268646,-2.5055891797485588 5.686795749268646,-5.585241155860127 c0,-0.20397982851134971 0.16856454252165942,-0.36952867483940244 0.376260139557275,-0.36952867483940244 s0.376260139557275,0.1655488463280519 0.376260139557275,0.36952867483940244 C14.325274749176755,11.391586743154972 11.436725657795556,14.228458379897056 7.885958720793557,14.228458379897056 z" style="stroke: none; stroke-width: 1; stroke-dasharray: none; stroke-linecap: butt; stroke-linejoin: miter; stroke-miterlimit: 10; fill: rgb(254,206,70); fill-rule: nonzero; opacity: 1;" stroke-linecap="round" id="svg_4"/>
	<path d="M7.874859046676619,16.210610191735604 C3.206787625259294,16.210610191735604 -0.5909940933620572,12.480772512244108 -0.5909940933620572,7.896215007849079 C-0.5909940933620572,3.3116575034540476 3.206787625259294,-0.41818017603744584 7.874859046676619,-0.41818017603744584 c1.3139004073340028,0 2.573807484641536,0.28767807336247503 3.7437883885948806,0.8550893535783752 c0.18624876908085114,0.09034976099823377 0.2626295774109778,0.3118822015644558 0.17063397328922406,0.49498365994737836 c-0.09180747405197519,0.18291669404550404 -0.3173754277165617,0.2581157793753218 -0.5040004569369694,0.16776601837708843 C10.21990036646733,0.5828730041024899 9.072306940817642,0.3208771736413572 7.874859046676619,0.3208771736413572 C3.6218025591909715,0.3208771736413572 0.16152618575249292,3.719247631801906 0.16152618575249292,7.896215007849079 s3.4602763734384747,7.575337834207723 7.713332860924126,7.575337834207723 s7.713332860924126,-3.3983704581605525 7.713332860924126,-7.575337834207723 c0,-1.4596382656156344 -0.4234807870717131,-2.876595969287318 -1.2245386241891498,-4.097518710956699 c-0.11268991179740366,-0.17164606946290215 -0.06227105309672906,-0.4003843191884922 0.1125017817276253,-0.5108733929654726 c0.1747728348243542,-0.11030430943956124 0.4074897311405286,-0.06115699568592106 0.5201796429379315,0.1104890737769812 C15.875654654222505,4.738962010021234 16.340712186715294,6.294308202420276 16.340712186715294,7.896215007849079 C16.340712186715294,12.480772512244108 12.542930468093944,16.210610191735604 7.874859046676619,16.210610191735604 z" style="stroke: none; stroke-width: 1; stroke-dasharray: none; stroke-linecap: butt; stroke-linejoin: miter; stroke-miterlimit: 10; fill: rgb(254,206,70); fill-rule: nonzero; opacity: 1;" stroke-linecap="round" id="svg_5"/>
	<path d="M14.292540117035267,1.6086846054566664 h-0.5523498848700796 V1.0662165107924313 c0,-0.20397982851134971 -0.16856454252165942,-0.36952867483940244 -0.376260139557275,-0.36952867483940244 s-0.376260139557275,0.1655488463280519 -0.376260139557275,0.36952867483940244 v0.5424680946642412 h-0.5523498848700796 c-0.20769559703561566,0 -0.376260139557275,0.1655488463280519 -0.376260139557275,0.36952867483940244 s0.16856454252165942,0.36952867483940244 0.376260139557275,0.36952867483940244 h0.5523498848700796 v0.5424680946642412 c0,0.20397982851134971 0.16856454252165942,0.36952867483940244 0.376260139557275,0.36952867483940244 s0.376260139557275,-0.1655488463280519 0.376260139557275,-0.36952867483940244 V2.3477419551354686 h0.5523498848700796 c0.20769559703561566,0 0.376260139557275,-0.1655488463280519 0.376260139557275,-0.36952867483940244 S14.500423844140665,1.6086846054566664 14.292540117035267,1.6086846054566664 z" style="stroke: none; stroke-width: 1; stroke-dasharray: none; stroke-linecap: butt; stroke-linejoin: miter; stroke-miterlimit: 10; fill: rgb(254,206,70); fill-rule: nonzero; opacity: 1;" stroke-linecap="round" id="svg_6"/>
	<path d="M10.086892407133837,9.756791885665464 L8.141063095413392,11.66780942759743 c-0.017496096489413294,0.017367847717451923 -0.03687349367661289,0.032703287723287136 -0.05775593142204168,0.04637584869234499 c-0.00884211327959597,0.005727694460010722 -0.018248616768527848,0.00960774554582446 -0.02746699018768112,0.01459638265615638 c-0.012228454535611439,0.006651516147109238 -0.024268779001444238,0.014042089643897264 -0.0374378838859489,0.019400255429068584 c-0.012040324465832815,0.004803872772912222 -0.024456909071222877,0.007575337834207738 -0.0366853636068343,0.011270624582601765 c-0.011099674116939637,0.0033257580735546258 -0.021823088094321947,0.007575337834207738 -0.03348715242059751,0.009792509883244174 c-0.023892518861886963,0.004619108435492529 -0.04797316779355265,0.0070210448219486426 -0.07224194679499668,0.0072058091593683185 C7.8757996970255135,11.776081329325368 7.875235306816176,11.776266093662791 7.874859046676619,11.776266093662791 c0,0 0,0 0,0 c-0.024645039141001513,0 -0.04947820835178162,-0.0025867007238758112 -0.07374698735322593,-0.007390573496788029 c-0.01072341397738233,-0.0020324077116167043 -0.02050617760587147,-0.00609722313485012 -0.030853331443696567,-0.008868688196145629 c-0.01316910488450463,-0.0036952867483940185 -0.026714469908566543,-0.00683628048452894 -0.0395073146535139,-0.012009681932280558 c-0.012040324465832815,-0.004988637110331927 -0.0231399985827724,-0.011824917594860873 -0.03442780276949065,-0.017922140729710972 c-0.010159023768046433,-0.005358165785171326 -0.02050617760587147,-0.009792509883244174 -0.03028894123436068,-0.016074497355514018 c-0.020694307675650177,-0.013672560969057876 -0.04007170486284973,-0.02900800097489309 -0.05756780135226302,-0.046191084354925305 L5.6628256862194,9.756791885665464 c-0.14692958449711593,-0.14430094752478606 -0.14692958449711593,-0.3782125986981276 0,-0.5225135462229122 c0.1467414544273376,-0.14430094752478606 0.3852903829066499,-0.14430094752478606 0.5320318373339874,0 L7.498598907119344,10.514695197761073 V4.385692596874769 c0,-0.20397982851134971 0.16856454252165942,-0.36952867483940244 0.376260139557275,-0.36952867483940244 s0.376260139557275,0.1655488463280519 0.376260139557275,0.36952867483940244 v6.129002600886306 l1.3037413835659557,-1.2802320939811052 c0.07355885728344715,-0.07224285593110315 0.1696933229403313,-0.10827190172794462 0.26601591866699326,-0.10827190172794462 s0.19245706138354599,0.036029045796841616 0.26601591866699326,0.10827190172794462 C10.233821991630952,9.378579286967337 10.233821991630952,9.612675702478098 10.086892407133837,9.756791885665464 z" style="stroke: none; stroke-width: 1; stroke-dasharray: none; stroke-linecap: butt; stroke-linejoin: miter; stroke-miterlimit: 10; fill: rgb(14,49,69); fill-rule: nonzero; opacity: 1;" stroke-linecap="round" id="svg_7"/>
</g>
</g></g></svg>