<svg xmlns="http://www.w3.org/2000/svg" xmlns:xlink="http://www.w3.org/1999/xlink" version="1.1" width="48" height="48" xml:space="preserve" style=""><rect id="backgroundrect" width="100%" height="100%" x="0" y="0" fill="none" stroke="none" class="" style=""/>
<desc>Created with Fabric.js 1.7.22</desc>
<defs>
</defs>

<g class="currentLayer" style=""><title>Layer 1</title><g transform="translate(128,128) scale(14.8100004196167) " style="" id="svg_1" class="">
	<g style="stroke: none; stroke-width: 0; stroke-dasharray: none; stroke-linecap: butt; stroke-linejoin: miter; stroke-miterlimit: 10; fill: none; fill-rule: nonzero; opacity: 1;" transform="translate(-8.550000190734863,-8.550000190734863) scale(0.1899999976158142) " id="svg_2">
	<path d="M2.5254088404768993,6.235464601927143 c-0.04467903101136911,0 -0.09027738364848537,-0.008246121112628015 -0.13422095735925388,-0.026050246242165842 c-0.18901252625385287,-0.07571438476140277 -0.2820478747795823,-0.2932995350286969 -0.2079505517442682,-0.4859589101146475 c0.6845268825322006,-1.7764768642409035 2.0951339850803974,-3.140835084693878 3.8701601800752274,-3.7433641614461215 c0.19232208410654691,-0.06578155705755546 0.40082422882626756,0.04085578187620187 0.4649928783034976,0.23726339383152395 c0.06416864947723444,0.1964076119553229 -0.0400824228826263,0.40874523060548773 -0.2327722356394724,0.47396455213263733 c-1.5676272362260208,0.5320622236079624 -2.8134919034401245,1.7371203771124524 -3.417853940207061,3.306132330633374 C2.8109501374343324,6.1451320933751745 2.6723164362714877,6.235464601927143 2.5254088404768993,6.235464601927143 z" style="stroke: none; stroke-width: 1; stroke-dasharray: none; stroke-linecap: butt; stroke-linejoin: miter; stroke-miterlimit: 10; fill: rgb(254,206,70); fill-rule: nonzero; opacity: 1;" stroke-linecap="round" id="svg_3"/>
	<path d="M8.042993373893104,14.482335361928891 c-0.20298621496522942,0 -0.36772865029932933,-0.1679210117480599 -0.36772865029932933,-0.37482368693764007 s0.16474243533410218,-0.37482368693764007 0.36772865029932933,-0.37482368693764007 c3.064466707269412,0 5.5578508206239725,-2.5414920092806064 5.5578508206239725,-5.6652726162188225 c0,-0.2069026751895734 0.16474243533410218,-0.37482368693764007 0.36772865029932933,-0.37482368693764007 s0.36772865029932933,0.1679210117480599 0.36772865029932933,0.37482368693764007 C14.33630149511572,11.604813917308697 11.513248646767806,14.482335361928891 8.042993373893104,14.482335361928891 z" style="stroke: none; stroke-width: 1; stroke-dasharray: none; stroke-linecap: butt; stroke-linejoin: miter; stroke-miterlimit: 10; fill: rgb(254,206,70); fill-rule: nonzero; opacity: 1;" stroke-linecap="round" id="svg_4"/>
	<path d="M8.03214537870927,16.49288961866234 C3.4699198787707175,16.49288961866234 -0.24174925302550357,12.709606734557365 -0.24174925302550357,8.059356662565657 C-0.24174925302550357,3.4091065905739324 3.4699198787707175,-0.3741762935310459 8.03214537870927,-0.3741762935310459 c1.2841084468452446,0 2.515447832372521,0.2918002402809498 3.658900070478266,0.867342011573691 c0.18202568189816723,0.0916443914562537 0.2566745979089293,0.31635119177536547 0.1667649429107463,0.5020763286529492 c-0.0897257906730377,0.18553772503412796 -0.3101791165274803,0.2618143453259388 -0.49257252707595134,0.17016995386968561 C10.324014191699806,0.6412210743829998 9.202441808286864,0.3754710803442192 8.03214537870927,0.3754710803442192 C3.8755245800508726,0.3754710803442192 0.49370804757314,3.8225371172661404 0.49370804757314,8.059356662565657 s3.3818165324777283,7.683885582221432 7.5384373311361275,7.683885582221432 s7.5384373311361275,-3.4470660369219246 7.5384373311361275,-7.683885582221432 c0,-1.4805535634036397 -0.4138785959118979,-2.9178149909659883 -1.1967728923991456,-4.156232452607921 c-0.1101347307646499,-0.17410560258253124 -0.06085909162453935,-0.40612146479692485 0.10995086643949831,-0.5181937471912788 c0.170809958064037,-0.11188487055088372 0.3982501282741719,-0.062033320188179704 0.5083848590388176,0.11207228239435249 C15.851527398674087,4.8568630813705305 16.306040010444036,6.43449597969102 16.306040010444036,8.059356662565657 C16.306040010444036,12.709606734557365 12.59437087864783,16.49288961866234 8.03214537870927,16.49288961866234 z" style="stroke: none; stroke-width: 1; stroke-dasharray: none; stroke-linecap: butt; stroke-linejoin: miter; stroke-miterlimit: 10; fill: rgb(254,206,70); fill-rule: nonzero; opacity: 1;" stroke-linecap="round" id="svg_5"/>
	<path d="M14.304309102539676,1.6817316293218671 h-0.5398256586394208 V1.1314904568974218 c0,-0.2069026751895734 -0.16474243533410218,-0.37482368693764007 -0.36772865029932933,-0.37482368693764007 s-0.36772865029932933,0.1679210117480599 -0.36772865029932933,0.37482368693764007 v0.5502411724244508 h-0.5398256586394208 c-0.20298621496522942,0 -0.36772865029932933,0.1679210117480599 -0.36772865029932933,0.37482368693764007 s0.16474243533410218,0.37482368693764007 0.36772865029932933,0.37482368693764007 h0.5398256586394208 v0.5502411724244508 c0,0.2069026751895734 0.16474243533410218,0.37482368693764007 0.36772865029932933,0.37482368693764007 s0.36772865029932933,-0.1679210117480599 0.36772865029932933,-0.37482368693764007 V2.4313790031971223 h0.5398256586394208 c0.20298621496522942,0 0.36772865029932933,-0.1679210117480599 0.36772865029932933,-0.37482368693764007 S14.507479181830064,1.6817316293218671 14.304309102539676,1.6817316293218671 z" style="stroke: none; stroke-width: 1; stroke-dasharray: none; stroke-linecap: butt; stroke-linejoin: miter; stroke-miterlimit: 10; fill: rgb(254,206,70); fill-rule: nonzero; opacity: 1;" stroke-linecap="round" id="svg_6"/>
	<path d="M10.785513647825454,9.33544390474481 H6.166657935740808 l0.8711491725591141,-0.8879573143552506 c0.14359803794188641,-0.14636864974914543 0.14359803794188641,-0.3836320435806683 0,-0.530000693329819 c-0.14341417361673744,-0.14636864974914543 -0.3765541379065088,-0.14636864974914543 -0.5199683115232451,0 l-1.4986781142949006,1.5275939361143225 c-0.01728324656406852,0.01742930144259995 -0.032543985551490386,0.03673272131988811 -0.04614994561256617,0.05753543594492681 c-0.0058836584047893365,0.00880835664303437 -0.00974480923293252,0.01855377250341287 -0.014893010337122845,0.0277369528333849 c-0.0066191157053879625,0.012181769825473062 -0.01378982438622499,0.023801304120540306 -0.0189380254904153,0.03673272131988811 c-0.004964336779040993,0.012181769825473062 -0.007722301656286021,0.02492577518135296 -0.011399588159279076,0.037482368693764 c-0.0031256935275442883,0.010869886921191334 -0.0071707086808369645,0.0211775383119763 -0.009377080582632915,0.0324222489201059 c-0.009377080582632915,0.048352255614955764 -0.009377080582632915,0.09839121782113065 0,0.14674347343608554 c0.002206371901795957,0.011244710608129036 0.006251387055088576,0.02155236199891413 0.009377080582632915,0.0324222489201059 c0.0036772865029933597,0.012556593512410934 0.006435251380238202,0.025300598868290582 0.011399588159279076,0.037482368693764 c0.005148201104190548,0.012931417199348304 0.01231890978502737,0.02455095149441527 0.0189380254904153,0.03673272131988811 c0.004964336779040993,0.009183180329972134 0.009009351932333626,0.01892859619035095 0.014893010337122845,0.0277369528333849 c0.013605960061075006,0.0206153027815699 0.028866699048497278,0.03991872265885859 0.04614994561256617,0.05753543594492681 l1.4986781142949006,1.5275939361143225 c0.07170708680836795,0.07327803079630721 0.16584562128499541,0.10982334027272662 0.2599841557616223,0.10982334027272662 s0.18827706895325486,-0.0365453094764193 0.2599841557616223,-0.10982334027272662 c0.14359803794188641,-0.14636864974914543 0.14359803794188641,-0.3836320435806683 0,-0.530000693329819 l-0.8711491725591141,-0.8879573143552506 h4.618855712084651 c0.20298621496522942,0 0.36772865029932933,-0.1679210117480599 0.36772865029932933,-0.37482368693764007 S10.988499862790682,9.33544390474481 10.785513647825454,9.33544390474481 z" style="stroke: none; stroke-width: 1; stroke-dasharray: none; stroke-linecap: butt; stroke-linejoin: miter; stroke-miterlimit: 10; fill: rgb(14,49,69); fill-rule: nonzero; opacity: 1;" stroke-linecap="round" id="svg_7"/>
	<path d="M11.090912291899041,6.545256379181083 c0.003309557852693952,-0.005060119773658047 0.005332065429340263,-0.010682475077722684 0.008457758956884534,-0.01574259485138062 c0.009377080582632915,-0.01574259485138062 0.018386432514966355,-0.03148518970276131 0.025373276870653987,-0.04853966745842428 c0.002941829202394658,-0.00712165005181515 0.004228879478442233,-0.01480553563403673 0.006802980030537662,-0.022114597529320854 c0.005332065429340263,-0.01574259485138062 0.011031859508979908,-0.031110366015824044 0.014157553036524188,-0.047790020084549016 c0.004780472453891299,-0.02417612780747745 0.0073545730059865234,-0.04910190298883011 0.0073545730059865234,-0.07402767817018341 s-0.0025741005520952885,-0.04985155036270577 -0.0073545730059865234,-0.07402767817018341 c-0.003309557852693952,-0.0164922422252559 -0.009009351932333626,-0.03204742523316861 -0.014157553036524188,-0.047790020084549016 c-0.0025741005520952885,-0.007309061895283953 -0.0038611508281429867,-0.014992947477505382 -0.006802980030537662,-0.022114597529320854 c-0.006986844355687283,-0.0170544777556626 -0.01618006061317035,-0.032984484450511484 -0.025373276870653987,-0.04853966745842428 c-0.002941829202394658,-0.005060119773658047 -0.005148201104190548,-0.010869886921191334 -0.008457758956884534,-0.01574259485138062 c-0.013422095735925598,-0.02042789093810117 -0.02868283472334735,-0.03954389897192086 -0.04578221696226589,-0.0567857885710515 l-1.4986781142949006,-1.5275939361143225 c-0.14359803794188641,-0.14636864974914543 -0.3763702735813652,-0.14636864974914543 -0.5199683115232451,0 c-0.14359803794188641,0.14636864974914543 -0.14359803794188641,0.3836320435806683 0,0.530000693329819 l0.8711491725591141,0.8879573143552506 H5.278777109593087 c-0.20298621496522942,0 -0.36772865029932933,0.1679210117480599 -0.36772865029932933,0.37482368693764007 s0.16474243533410218,0.37482368693764007 0.36772865029932933,0.37482368693764007 h4.618855712084651 l-0.8711491725591141,0.8879573143552506 c-0.14359803794188641,0.14636864974914543 -0.14359803794188641,0.3836320435806683 0,0.530000693329819 c0.07189095113351802,0.07327803079630721 0.16584562128499541,0.10982334027272662 0.2599841557616223,0.10982334027272662 s0.18809320462810591,-0.0365453094764193 0.2599841557616223,-0.10982334027272662 l1.4986781142949006,-1.5275939361143225 C11.062229457175686,6.5848002781530095 11.077490196163119,6.565684270119198 11.090912291899041,6.545256379181083 z" style="stroke: none; stroke-width: 1; stroke-dasharray: none; stroke-linecap: butt; stroke-linejoin: miter; stroke-miterlimit: 10; fill: rgb(14,49,69); fill-rule: nonzero; opacity: 1;" stroke-linecap="round" id="svg_8"/>
</g>
</g></g></svg>