<svg xmlns:dc="http://purl.org/dc/elements/1.1/" xmlns:cc="http://creativecommons.org/ns#" xmlns:rdf="http://www.w3.org/1999/02/22-rdf-syntax-ns#" xmlns:svg="http://www.w3.org/2000/svg" xmlns="http://www.w3.org/2000/svg" version="1.1" width="70" height="64"><rect id="backgroundrect" width="100%" height="100%" x="0" y="0" fill="none" stroke="none" class="selected" style=""/>
  <title id="title4599">Warning sign</title>
  <metadata id="metadata2">
    <rdf:RDF>
      <cc:Work rdf:about="">
        <dc:title>Warning sign</dc:title>
        <dc:description/>
        <dc:subject>
          <rdf:Bag>
            <rdf:li/>
            <rdf:li>caution</rdf:li>
            <rdf:li>security</rdf:li>
            <rdf:li>warning</rdf:li>
            <rdf:li>signs_and_symbols</rdf:li>
            <rdf:li>sign</rdf:li>
          </rdf:Bag>
        </dc:subject>
        <dc:publisher>
          <cc:Agent rdf:about="http://www.openclipart.org">
            <dc:title>Thomas Weller</dc:title>
          </cc:Agent>
        </dc:publisher>
        <dc:creator>
          <cc:Agent>
            <dc:title>Thomas Weller</dc:title>
          </cc:Agent>
        </dc:creator>
        <dc:rights>
          <cc:Agent>
            <dc:title>Thomas Weller</dc:title>
          </cc:Agent>
        </dc:rights>
        <dc:date/>
        <dc:format>image/svg+xml</dc:format>
        <dc:type rdf:resource="http://purl.org/dc/dcmitype/StillImage"/>
        <cc:license rdf:resource="http://web.resource.org/cc/PublicDomain"/>
        <dc:language>en</dc:language>
      </cc:Work>
      <cc:License rdf:about="http://web.resource.org/cc/PublicDomain">
        <cc:permits rdf:resource="http://web.resource.org/cc/Reproduction"/>
        <cc:permits rdf:resource="http://web.resource.org/cc/Distribution"/>
        <cc:permits rdf:resource="http://web.resource.org/cc/DerivativeWorks"/>
      </cc:License>
    </rdf:RDF>
  </metadata>
  <defs id="defs1610">
    <marker viewBox="0 0 10 10" refY="5" refX="0" orient="auto" markerWidth="4" markerUnits="strokeWidth" markerHeight="3" id="ArrowEnd">
      <path id="path1612" d="M 0 0 L 10 5 L 0 10 z"/>
    </marker>
    <marker viewBox="0 0 10 10" refY="5" refX="10" orient="auto" markerWidth="4" markerUnits="strokeWidth" markerHeight="3" id="ArrowStart">
      <path id="path1614" d="M 10 0 L 0 5 L 10 10 z"/>
    </marker>
  </defs>
  
<g class="currentLayer" style=""><title>Layer 1</title><g id="g4593" class="">
    <path id="path4595" d="m34.97275876008636,0.860999824503696 c-0.06394610019744074,0.0008346392298389861 -0.1276442022015212,0.008548669570562575 -0.19009295481640962,0.023013949352177963 c-1.494979901688946,0.014459879174833922 -2.8898948719625337,0.8319335749379618 -3.6428361038497417,2.2007087226903956 l-14.622534985877524,26.574399038500303 l-14.622534985877524,26.57440149332157 h0.0009358422390961647 c-1.6002340783200908,2.9075737692797032 0.4758383448908348,6.681571794127663 3.6757403169763627,6.681714173760988 h29.245069971755047 h29.24598382170153 c3.199902907927767,-0.00015710856091086885 5.276896667823083,-3.7741453141238157 3.67665369900172,-6.681714173760988 l-14.622534985877524,-26.57440149332157 l-14.623449771666243,-26.574399038500303 c-0.6855886659394572,-1.2463786432534636 -1.9087297932269451,-2.0440872474147787 -3.265392211977477,-2.1844071875067095 c-0.06785324154566777,-0.02100737845079439 -0.13775597759495514,-0.03387555151790013 -0.20837463295715158,-0.03835658225362951 h-0.001871684478192324 c-0.014599138929900212,-0.000677530668928112 -0.029245069971755085,-0.0009966574332783101 -0.043844208901655496,-0.0009573802930505981 z" style="color:#000000;opacity:1;solid-color:#000000;fill:#000000;fill-opacity:1;stroke:none;" stroke-width="0"/>
    <path style="color:#666666;opacity:1;solid-color:#000000;fill:#ffffff;fill-opacity:1;stroke:none;" d="m34.973025475124516,1.8429283301966004 c-1.2352743219173696,-0.061248919760377614 -2.4041132032813026,0.6089613739649428 -3.0222978319498583,1.7327584191961178 l-14.622534985877524,26.574399038500303 l-14.622534985877524,26.57440149332157 c-1.2515205431880798,2.2739696720537648 0.363373503807457,5.208708493443463 2.8660168572319953,5.2088214152216175 h29.245069971755047 h29.245987097149364 c2.5026480326357383,-0.000122741063211615 4.11754207963127,-2.9348566528103808 2.8660168572319953,-5.2088214152216175 l-14.622534985877524,-26.57440149332157 l-14.62345211127184,-26.574399038500303 c-0.5625020154423344,-1.02261127657653 -1.5847973605862,-1.6766447400383944 -2.7088234363310137,-1.7327584191961178 h-0.0009358422390961647 z" id="path4583" stroke-width="0"/>
    <path style="color:#000000;opacity:1;solid-color:#000000;fill:#000000;fill-opacity:1;stroke:none;" d="m34.92916254937807,2.8238977372215857 c-0.8873001021542446,-0.0439953066975711 -1.7237512162472006,0.4355255513435432 -2.1677943210647403,1.2427532650175948 l-14.622534985877524,26.574399038500303 l-14.622534985877524,26.57440149332157 c-0.913770399887079,1.6602839945658072 0.22813494183566818,3.7358451927592626 2.055380951304509,3.7359286566822467 h29.245069971755047 h29.245987097149364 c1.8272441377843638,-0.00008837356551236333 2.9691438644536747,-2.075649571758967 2.0553762720933135,-3.7359286566822467 l-14.622534985877524,-26.57440149332157 l-14.623447432060644,-26.574399038500303 c-0.4038673974931443,-0.7342178925260189 -1.1359393474485076,-1.2024647384290146 -1.9429675815442775,-1.2427532650175948 z" id="path4577" stroke-width="0"/>
    <path style="opacity:1;fill:#ffcc00;fill-opacity:1;stroke:none;" id="path4573" d="m64.06277792174686,58.46091983139688 l-29.245574858643042,0 l-29.245575326564165,0 l14.622787663282082,-26.574679379088682 l14.622787663282082,-26.574678397160174 l14.622787663282082,26.57467790619592 z" stroke-width="0"/>
    <g id="g858" stroke-width="0">
      <circle r="8.817347526550293" cy="105.79269806758117" cx="74.28106282869088" id="path846" style="opacity:1;fill:#000000;fill-opacity:1;stroke:none;" transform="matrix(0.46792111954808085,0,0,0.49096425284645717,0.05973971272296735,-0.07293621046034815) " stroke-width="0"/>
      <path id="circle848" d="m34.8174605737131,18.402423742274255 c-2.2786420267589627,-0.0002744490173411729 -4.126053096874729,1.9376846889950894 -4.126296415856895,4.328540184581022 c1.4768760335736304,18.391981436097453 0,0 1.4768760335736304,18.391981436097453 c0.00041785355975644073,1.5349560407059442 1.1865066469958294,2.779025580885421 2.6494203822832643,2.7789342615343915 c1.4629137352874348,0.00009131935102944198 2.649002528723508,-1.2439782208284464 2.6494203822832643,-2.7789342615343915 c1.4759621836271528,-18.391981436097453 0,0 1.4759621836271528,-18.391981436097453 c-0.00024331898216500413,-2.39048088986101 -1.8470975629656694,-4.328284883169542 -4.125382565910417,-4.328540184581022 z" style="opacity:1;fill:#000000;fill-opacity:1;stroke:none;" stroke-width="0"/>
    </g>
  </g></g></svg>